<?xml version="1.0" encoding="UTF-8"?>
<!DOCTYPE svg PUBLIC "-//W3C//DTD SVG 1.1//EN" "http://www.w3.org/Graphics/SVG/1.1/DTD/svg11.dtd">
<!-- Creator: CorelDRAW X7 -->
<svg xmlns="http://www.w3.org/2000/svg" xml:space="preserve" width="800mm" height="500mm" version="1.1" style="shape-rendering:geometricPrecision; text-rendering:geometricPrecision; image-rendering:optimizeQuality; fill-rule:evenodd; clip-rule:evenodd"
viewBox="0 0 80000 50000"
 xmlns:xlink="http://www.w3.org/1999/xlink">
 <defs>
  <style type="text/css">
   <![CDATA[
    .str0 {stroke:black;stroke-width:7.62}
    .fil0 {fill:#FEFEFE}
   ]]>
  </style>
 </defs>
 <g id="Layer_x0020_1">
  <metadata id="CorelCorpID_0Corel-Layer"/>
  <path class="fil0 str0" d="M25415 1009c-99,-42 -28,-254 64,-267 145,26 74,302 -64,267zm239 170c-44,-2 -16,-24 3,-38 -13,7 -38,34 -46,7 -66,-193 194,-23 43,31zm39711 597c-184,4 -90,-126 22,-163 156,17 93,132 -22,163zm731 15c-82,-188 -295,-176 -442,-224 -23,-65 64,-48 56,-83 -44,-90 138,-61 127,-135 185,-153 -95,-250 54,-344 124,20 258,97 241,230 103,118 511,179 399,415 -257,-25 -205,-132 -435,141zm-4841 966c-34,0 -55,-48 -48,-77 49,-89 148,70 48,77zm6032 153c-419,-131 -482,-723 -933,-863 2,-142 117,-48 124,-223 146,-142 416,221 501,309 238,286 774,313 308,777zm-4678 22c-128,-27 80,-193 67,-56 -13,24 -39,53 -67,56zm-249 304c-122,-79 139,-234 199,-289 112,65 -108,242 -199,289zm-2329 946c-79,-26 -32,-219 43,-239 85,20 33,228 -43,239zm-554 1057c-100,-16 26,-167 60,-164 100,27 23,176 -60,164zm-346 567c-117,-28 55,-164 80,-62 5,42 -49,55 -80,62zm7425 234c-20,-275 -267,-635 231,-509 446,193 45,390 -231,509zm-7013 556c-104,-188 -30,-625 -353,-594 -91,-475 743,264 353,594zm6331 861c-52,-3 -88,-123 -18,-129 53,2 87,127 18,129zm-4286 1176c-62,-4 -43,-90 15,-84 62,4 44,89 -15,84zm-30889 120c-85,-2 -19,-92 -43,-139 80,-179 324,110 43,139zm28834 993c-285,-309 -59,-324 -12,-599 -439,-225 -436,-419 -352,-874 11,-603 340,-1060 512,-1570 178,-78 135,332 348,-120 145,-23 454,-830 423,-432 96,489 -336,664 -413,1082 3,84 14,203 92,179 68,96 110,146 200,59 177,153 156,493 -12,656 -94,94 70,247 92,369 -1,113 -218,5 -222,-62 41,-174 -45,-11 -111,-3 -502,106 -181,843 -515,1040 -27,48 435,8 -30,275zm1772 72c-40,-9 -83,-79 -75,-118 68,-95 182,95 75,118zm-2043 238c-228,-61 -296,-537 -45,-600 320,57 161,450 45,600zm450 502c-202,-87 31,-778 14,-374 -58,108 139,307 -14,374zm-704 220c-46,-42 -304,-166 -120,-197 67,27 292,147 120,197zm-125 60c-39,6 -152,-43 -77,-94 89,-90 245,96 77,94zm-9332 39c-151,-30 -546,-119 -190,-241 122,113 151,42 286,-27 81,88 19,240 -96,268zm10280 75c-101,-30 -83,-213 4,-226 113,16 96,202 -4,226zm-9933 68c-211,-185 -52,-549 207,-609 64,202 108,112 -56,322 -23,233 290,194 -151,287zm11308 212c-145,-77 -522,-560 -320,-611 24,232 664,533 320,611zm-13625 289c-498,-335 335,-644 426,-1020 184,-106 173,-61 139,62 111,-116 230,30 353,-42 125,-58 210,208 280,161 32,-98 166,-134 279,-169 172,65 -29,222 -34,262 219,158 533,141 716,203 425,272 -784,148 -904,-83 -591,344 -625,-240 -1255,626zm12747 36c-69,-11 -21,-112 33,-73 34,26 9,84 -33,73zm-3092 66c-66,-3 -38,-101 19,-85 49,16 29,88 -19,85zm2202 16c-55,0 -57,-99 -1,-98 55,0 57,98 1,98zm859 13c-84,-3 -47,-107 24,-84 60,15 30,91 -24,84zm-3194 56c-71,-5 -55,-121 13,-115 65,1 40,117 -13,115zm635 17c-91,-65 -187,-116 -226,-214 12,-129 -163,-7 -129,-126 75,-105 431,-295 498,-149 -194,194 100,109 210,77 105,298 -159,299 -353,412zm-871 25c-201,-120 182,-361 211,-204 -54,70 -147,134 -211,204zm506 20c-62,-2 -91,-77 -49,-121 67,-43 136,112 49,121zm3769 269c-139,-11 -145,-411 -1,-306 -4,84 78,263 1,306zm-4490 8c-168,-70 0,-115 70,-158 113,29 -22,139 -70,158zm763 13c-56,-91 -195,-20 -240,-114 9,-161 552,-18 240,114zm437 9c-451,-223 -80,-549 -28,-148 -40,56 168,114 28,148zm3523 107c-156,-38 -26,-533 95,-309 -57,87 -29,253 -95,309zm-4298 19c-93,-18 16,-121 -4,-176 134,-148 324,256 4,176zm-508 19c-98,-16 -21,-211 56,-143 12,39 -11,135 -56,143zm-9589 12c-109,-90 -71,-425 -289,-464 -51,-15 -38,-121 -27,-158 92,-95 286,44 405,-107 96,129 252,276 381,276 68,-49 -127,-146 56,-156 123,-29 3,143 30,205 -78,2 -164,107 -233,67 -143,-118 -240,277 -323,337zm12342 63c-279,-95 -173,-415 -222,-678 11,-189 -389,-466 33,-242 114,254 157,732 189,920zm1876 105c-75,-8 -57,-149 5,-159 63,1 66,163 -5,159zm-1195 20c-345,-111 -565,10 -364,-404 -121,-59 -135,-172 -170,-287 59,-132 265,114 245,200 121,-78 206,-328 296,-215 50,-14 122,-188 180,-87 360,283 -381,240 -264,447 139,132 737,-244 592,153 -331,-62 -325,94 -515,193zm-3239 107c-146,-75 116,-288 194,-160 -3,85 -131,121 -194,160zm-10065 134c-104,-127 -31,-273 130,-288 106,44 -73,248 -130,288zm14616 26c-117,-20 -140,-190 -35,-233 90,46 151,212 35,233zm-5062 77c-99,-197 -390,30 -550,-80 -64,-247 102,-344 312,-408 479,292 360,-12 662,107 34,160 -74,177 -192,138 42,136 -68,192 -232,243zm5105 101c-86,-4 -200,-107 -90,-151 86,-18 190,115 90,151zm-6735 93c-97,-16 -337,-105 -362,-209 109,-297 1069,104 362,209zm10143 9c-174,-111 -425,-360 -693,-560 -270,-423 -530,-1237 -1155,-1089 -256,-84 -154,-162 -24,-283 -110,-78 -248,103 -305,-7 -30,-43 92,-130 14,-156 -57,55 -256,27 -244,-64 -109,52 -21,-41 -199,-37 -52,-178 -489,-448 34,-560 150,17 -139,-17 -123,-111 -73,-107 114,-196 -40,-199 -103,133 -244,48 -335,-63 -45,18 -114,75 -145,-1 -190,-151 -57,-401 -328,-395 56,-202 37,-444 21,-616 137,-95 -24,-48 6,-150 4,-98 127,-7 177,-17 23,51 10,109 87,99 485,46 456,-272 601,-689 529,-832 -1023,-198 -1349,-456 43,-202 540,-236 687,-443 -180,-315 638,-444 821,-612 294,-496 147,-429 645,-765 271,-652 1447,-1043 2106,-503 239,19 522,115 764,131 88,236 486,517 185,708 277,118 280,707 -35,830 -301,62 -121,295 -252,279 -297,11 54,203 -176,205 -91,-32 -232,-52 -284,37 189,-38 301,136 475,191 146,73 -216,174 -214,288 30,136 -103,58 -106,148 -47,167 -38,158 -15,333 -119,779 807,1158 1034,1717 101,488 994,411 630,1026 -599,6 -978,867 -1328,1287 -477,-27 -260,561 -937,497zm-7065 71c-37,-10 -111,-63 -76,-107 53,-54 178,94 76,107zm3603 103c-69,-11 -63,-167 -12,-184 111,4 100,153 12,184zm-21753 234c-256,-131 47,-86 30,-133 41,-294 164,100 -30,133zm6568 361c-292,-31 53,-288 78,-433 57,-400 174,-419 448,-622 26,315 -340,791 -526,1055zm-7303 361c-211,-159 266,-326 112,-107 -110,-72 0,105 -112,107zm1608 44c-121,-3 -39,-165 58,-108 71,28 -11,113 -58,108zm19036 457c-401,34 17,-426 -272,-429 -155,-30 -173,-147 -206,-298 -132,-128 -416,-214 -396,-407 -34,-157 -329,-131 -386,-321 -103,-40 -21,-224 74,-204 55,2 7,-82 71,-97 -42,-59 13,-207 65,-240 107,22 31,262 167,142 157,138 -80,131 194,160 68,179 507,-517 522,-287 -52,262 461,94 573,355 131,-23 275,-58 436,73 255,297 -78,213 -80,628 124,47 102,264 -35,273 24,64 79,163 39,233 -24,162 -280,103 -386,201 -99,123 -199,212 -380,218zm801 212c-197,15 31,-259 47,-87 -6,36 -2,87 -47,87zm-4316 260c-140,-25 -191,-173 -231,-293 -30,-374 712,246 231,293zm5093 22c-325,-56 -43,-506 4,-781 39,-250 -148,-265 -43,-488 -21,-213 254,-196 188,-411 -50,-325 322,-173 136,82 2,534 -47,1182 -285,1598zm-822 31c-75,-4 -23,-136 26,-136 91,-6 31,133 -26,136zm-136 130c-111,-31 -18,-194 72,-125 17,38 -32,115 -72,125zm-22860 164c-55,3 -70,-102 -9,-103 60,-2 76,102 9,103zm-583 14c-50,5 -94,-55 -38,-82 59,-43 118,76 38,82zm-1988 368c-145,-102 341,-312 395,-316 50,-92 328,-177 230,-7 -168,180 -393,251 -625,323zm8064 126c-57,-2 -46,-91 10,-79 48,8 39,84 -10,79zm-797 263c-235,-51 12,-162 111,-129 52,59 -64,131 -111,129zm2023 977c-60,-3 -99,-122 -36,-147 69,-5 130,135 36,147zm-440 39c-33,-4 -58,-32 -82,-56 -72,-163 234,5 82,56zm15323 121c-115,-605 656,-980 737,-1534 38,-6 93,-26 126,-1 40,30 -107,-157 36,-158 181,83 183,-20 258,-172 218,-25 147,-178 281,-301 1865,-418 -1144,1782 -1438,2166zm-15169 74c-134,-32 53,-218 75,-78 -6,50 -38,66 -75,78zm159 187c-72,-37 -42,-145 -85,-203 129,-214 377,165 85,203zm-4718 1005c-65,-206 -226,-418 -249,-609 196,-117 280,-94 430,71 50,96 138,90 201,149 -29,82 -61,229 -189,194 -5,114 3,151 -193,195zm706 208c-134,0 -25,-79 -53,-119 -220,-388 323,12 53,119zm-3 295c-118,-36 41,-213 87,-78 25,58 -52,62 -87,78zm4514 39c-147,29 -148,-186 -16,-197 73,29 170,231 16,197zm-5418 64c-184,-11 14,-207 59,-90 2,35 -14,90 -59,90zm431 23c-189,45 -111,-762 -15,-375 -5,201 16,-39 97,-32 -54,-105 29,-238 83,-70 89,-48 142,64 74,123 -435,201 -22,149 -239,354zm-1129 72c-63,-14 -62,-150 -147,-123 -132,202 -87,-210 57,-232 -90,-266 -160,-422 170,-616 332,-378 75,324 168,245 107,-82 57,-289 203,-328 99,14 0,165 58,208 10,-87 62,-194 154,-185 134,71 285,497 27,326 77,179 -33,173 -117,164 157,248 -470,151 63,221 100,275 -525,56 -636,320zm5991 122c-139,-19 -146,-135 -53,-131 -109,-180 412,-100 53,131zm-134 75c-76,-2 -199,-51 -116,-140 82,-78 252,96 116,140zm-4187 74c-115,11 -42,-159 29,-154 117,-5 56,154 -29,154zm-2081 23c-57,0 -46,-95 5,-95 61,5 60,98 -5,95zm1595 28c-75,-1 -286,-14 -208,-126 72,-22 426,35 208,126zm-774 30c-306,-14 -129,-218 29,-312 59,29 62,147 160,112 104,-125 141,183 35,150 -127,-70 -100,-5 -224,50zm-708 33c-43,-10 -16,-28 6,-40 -84,58 -68,-88 -14,-132 181,-162 266,145 8,172zm1907 79c-106,0 -27,-131 36,-127 137,-21 25,113 -36,127zm-720 58c-165,-88 225,-217 140,-45 -40,41 -84,46 -140,45zm370 3c-212,-19 98,-246 82,-80 -27,29 -32,86 -82,80zm-583 167c-114,-54 -238,-48 -206,-204 -16,40 -131,43 -132,-25 151,-150 579,-15 338,229zm1134 135c-89,-12 -33,-144 -131,-106 -36,-56 -132,-65 -106,-138 262,-137 162,69 233,21 -17,-173 360,-152 372,-44 -145,95 -251,168 -368,267zm-29939 119c-54,1 -50,-85 2,-84 54,0 50,84 -2,84zm48435 119c-530,-66 -206,-348 123,-439 405,71 290,472 -123,439zm-19266 136c-152,-12 -235,-55 -116,-181 -82,86 -143,-246 -40,-257 -105,-109 115,-275 191,-137 -199,481 197,383 -35,575zm1604 163c-179,-15 -193,-128 -331,-151 149,195 -315,70 -316,-35 -116,102 -52,-119 -159,-72 -58,-15 -27,247 -118,97 -74,38 -130,-66 -178,-36 -94,84 -185,-150 -56,-121 -2,-1 -43,-12 -43,-15 -87,-31 -25,240 -194,136 -42,-58 41,-124 34,-189 -18,-40 -101,-96 -46,-141 -52,-184 121,-52 165,-40 46,10 42,9 0,0 12,-49 110,-88 109,-12 -89,91 -160,166 35,188 -155,-87 -38,-78 88,-107 26,9 30,-22 36,-39 -36,120 -119,-91 -1,-54 78,30 20,144 7,182 94,28 83,-103 218,-145 284,-74 -88,156 25,184 46,-222 205,-7 288,69 28,35 -55,-106 27,-99 34,7 114,36 27,-6 -269,-15 47,-132 -86,-274 34,-68 108,-19 103,39 -29,-143 142,-129 93,1 44,27 58,86 29,129 105,-103 257,27 139,106 88,-38 236,135 100,192 87,39 77,191 5,213zm-2008 119c-103,-77 -104,-227 39,-261 86,38 64,234 -39,261zm-28525 78c-54,-2 -91,-96 -21,-102 52,2 92,97 21,102zm26728 73c-93,-36 -27,-152 36,-233 -27,-64 -218,-58 -200,-167 140,-141 139,-109 405,-106 98,66 -82,209 -85,322 -15,49 -77,53 -113,74 4,31 19,108 -43,110zm-273 151c-40,4 -58,-78 1,-80 58,-4 56,87 -1,80zm1080 71c-220,-48 1,-243 103,-129 47,66 -31,128 -103,129zm7227 273c-60,-14 -160,-42 -80,-113 -51,25 -113,-42 -104,-90 -29,15 -74,23 -81,-23 -88,-191 -92,-345 -95,-559 -33,-40 -120,-146 -18,-175 211,83 157,473 262,630 -19,122 327,265 116,330zm-32018 254c-88,-17 -32,-145 44,-133 101,5 24,126 -44,133zm295 21c-41,-24 -143,4 -107,-81 63,-83 278,45 107,81zm743 4c-28,-6 -98,-4 -106,-48 0,-116 249,5 106,48zm29106 9c-54,-9 -92,-19 -93,-83 -2,-16 -82,100 -102,3 -1,-126 95,1 123,-91 129,-183 196,125 72,171zm2113 119c-104,-18 -45,-121 -121,-177 -87,-27 -163,-160 -70,-246 143,7 261,257 465,185 142,87 -88,214 -164,130 -42,-24 -60,105 -110,108zm-32223 49c-154,3 -63,-222 26,-136 21,36 32,132 -26,136zm15488 5c-54,1 -53,-90 1,-89 57,0 55,88 -1,89zm14293 158c-44,-6 -45,-37 0,-40 -33,15 -58,2 -30,-33 -162,-242 335,-39 30,73zm446 30c-42,-2 -69,-77 -39,-104 90,-42 163,89 39,104zm-5975 136c-127,-56 -6,-215 -21,-301 -35,-176 -130,471 -245,196 58,-118 -28,-482 148,-440 34,-244 258,-274 -24,-462 63,-340 247,38 298,166 218,-167 382,155 593,-237 21,-119 202,-251 213,-403 -133,191 -150,-310 -131,-429 75,-61 43,-357 176,-97 -3,-478 932,140 339,13 -131,-23 -250,180 -333,51 -31,-15 56,74 -5,89 107,74 163,-147 251,-30 106,-120 87,2 152,38 190,-42 183,142 25,182 -34,40 -312,2 -145,59 51,87 38,72 129,110 69,230 -160,171 -182,323 92,17 82,222 -31,110 2,25 2,52 -8,74 -122,47 96,109 -31,164 -6,-56 -10,-35 -18,7 -162,78 -292,137 -337,333 -10,67 50,190 -70,203 -6,22 28,64 -16,80 82,122 4,179 -118,119 -26,53 -100,45 -105,-17 -33,33 -124,63 -113,-19 57,-163 265,-455 -51,-298 -27,105 -114,158 -101,286 -121,72 -56,128 -239,130zm-22466 36c-59,3 -80,-105 -15,-107 68,-13 87,110 15,107zm502 60c-68,-79 -140,-65 -215,-139 -31,-196 518,139 215,139zm-2889 1c-121,50 232,-555 356,-526 60,65 -56,125 -57,188 30,-11 179,-94 166,21 1,241 107,-200 157,25 192,334 -426,105 -622,292zm30603 18c-161,-24 -16,-121 1,-197 -98,46 -128,-16 -33,-134 -151,-95 -124,-290 70,-158 2,120 118,446 -38,489zm2623 42c-21,-2 -85,-32 -103,-91 46,-163 278,41 103,91zm-6659 38c-43,-3 -53,-49 -58,-177 69,-147 156,166 58,177zm-133 26c-107,-9 -90,-196 13,-205 82,6 40,195 -13,205zm-32743 379c-45,-110 -307,-223 -499,-174 -146,8 -328,-162 -436,-19 -50,101 -395,-274 -505,-303 -208,-262 -682,63 -744,-255 -187,261 -165,-7 -200,-176 -94,-274 -197,35 -412,-46 -188,-15 -393,-34 -529,-119 39,-116 39,-132 -86,-179 -148,-21 -71,-161 -217,21 -453,-135 -239,-503 -202,-753 -66,-269 -314,-696 -112,-928 -11,-207 -156,-18 -11,-262 87,-141 259,88 113,-124 -18,-105 -120,-153 -208,-138 -174,-128 -253,-420 -503,-206 -159,-38 95,-129 48,-205 40,-104 -99,-212 -67,-315 134,-91 155,-146 102,-315 185,-309 -423,-243 -154,-444 210,-140 -37,-423 141,-548 99,67 53,76 137,-28 47,-77 216,-167 192,-221 -137,-379 -120,-332 248,-526 174,-76 41,-398 198,-400 112,-49 -42,-70 -23,-125 71,-183 253,-107 358,-230 -220,-411 548,-645 848,-823 102,-73 129,-135 158,19 65,-7 243,-82 258,4 135,-22 335,-285 482,-210 309,5 404,-78 758,131 206,-178 412,-60 615,27 -10,488 -533,887 -86,1361 197,-528 993,386 1412,220 218,100 277,-182 455,-22 61,240 357,-128 375,113 243,-200 667,144 953,391 354,112 426,904 249,1208 64,-17 278,-25 128,113 -52,-14 -82,-38 -58,32 -144,303 118,70 279,140 -10,-238 374,-162 265,234 -189,253 -86,785 -384,1048 -109,33 106,14 90,121 -86,64 -99,141 -226,164 -79,78 120,87 189,116 49,-31 97,-174 190,-115 -34,271 348,5 274,294 130,235 99,209 -169,207 140,195 354,375 487,529 98,29 1,212 110,219 239,1339 -325,-157 -841,-243 -266,-230 -565,-296 -746,-560 -99,-122 -380,21 -559,-45 -153,-136 -161,-5 -257,95 -634,158 -548,1043 -853,1512 -181,138 -266,260 -403,437 -165,128 -513,36 -622,301zm35173 27c-50,-3 -47,-81 3,-80 55,0 52,86 -3,80zm-12119 38c-143,-57 154,-217 95,-56 -26,26 -56,59 -95,56zm11595 312c-52,1 -52,-83 0,-82 52,0 53,83 0,82zm-12996 130c-88,-90 -73,-323 73,-384 121,70 -2,330 -73,384zm12676 138c-57,5 -95,-76 -25,-87 68,-22 99,80 25,87zm-28005 44c-98,-15 -53,-141 29,-148 103,25 55,136 -29,148zm22591 198c-69,-8 -69,-188 1,-197 67,18 61,193 -1,197zm-6735 49c-104,-118 -170,-652 -50,-698 183,213 45,-252 217,-260 117,-156 130,-477 160,-659 161,-122 107,-291 -3,-447 14,-508 386,577 139,818 -186,399 -250,917 -463,1246zm-463 175c-81,-37 -62,-167 19,-190 73,8 50,195 -19,190zm-13069 44c-96,12 -159,-151 -44,-154 56,5 132,139 44,154zm23298 186c-306,-57 -120,-58 -134,-281 -148,-54 -140,-294 -44,-346 2,-97 36,-279 121,-368 21,-122 298,64 189,-87 -206,2 355,-790 490,-418 93,-93 221,-102 326,-194 69,-107 342,-430 67,-378 -89,-113 279,-119 294,-278 714,-723 -146,-689 266,-947 117,-26 87,263 209,69 -197,-262 96,-398 260,-111 73,33 189,-15 253,-32 -44,8 -89,-63 -55,-98 88,-2 245,-16 268,80 70,-50 180,-46 125,66 29,-46 121,-168 190,-23 10,59 -101,72 -99,105 49,-42 106,-11 90,53 68,-60 170,-70 122,61 -15,118 161,-95 202,6 87,-64 183,-161 298,-97 111,59 -39,147 -86,65 -92,52 -80,25 12,58 48,-47 197,54 123,103 59,-19 163,60 82,109 -83,58 -202,-10 -275,-60 -10,48 -176,97 -27,70 124,-4 230,71 73,133 291,-83 119,110 23,238 89,-185 680,-333 347,-50 -169,224 -173,-186 -260,363 -416,363 -17,328 -134,493 -249,-142 -234,-45 -138,237 -50,107 -100,-77 -147,-40 44,58 34,167 -35,196 -193,3 -7,91 -23,183 -118,83 -202,-22 -218,-112 -61,20 -124,77 -180,10 -66,94 10,135 -23,232 -34,39 85,-58 92,53 37,129 59,292 -89,356 -113,-42 10,-197 -79,-265 0,-52 -135,-78 -43,-107 -52,27 -37,-46 -76,2 130,115 61,217 -80,109 -26,10 -113,67 -95,81 -104,170 187,40 245,172 139,99 -70,165 -146,150 -67,91 -565,38 -559,-178 -47,138 -286,232 -438,226 -23,-1 -32,-57 -44,-15 -117,86 -97,-84 -124,-121 -76,36 -151,79 -230,8 -56,31 -83,76 -156,2 -13,99 -72,98 -127,112 -11,118 -154,136 -255,129 -69,86 -190,227 -348,276zm-3487 116c-408,-156 268,-303 7,-88 49,15 44,86 -7,88zm5696 269c-90,-18 -21,-120 39,-121 76,27 22,118 -39,121zm-13985 5c-34,0 -38,-30 -44,-58 0,-154 227,62 44,58zm9070 218c-75,78 -519,-599 -382,-611 84,83 1017,-230 740,47 -28,-22 -358,35 -251,54 173,28 -31,77 21,158 133,275 148,166 -128,352zm-139 245c-91,-13 -23,-86 12,-108 16,-237 242,111 -12,108zm-7320 22c-173,-17 42,-567 -149,-625 -188,-97 153,-173 29,-355 98,-114 42,261 407,-30 93,320 -17,774 -287,1010zm12546 77c-404,-141 -364,-600 53,-513 73,-91 122,-32 120,69 17,-56 87,-67 133,-43 150,-44 162,104 215,202 113,291 -317,219 -521,285zm-12650 514c-89,-29 -72,-301 -12,-339 178,-30 117,317 12,339zm21385 436c-61,0 -47,-114 7,-114 63,2 51,112 -7,114zm-3522 211c-37,1 -60,-54 -30,-77 59,-45 106,74 30,77zm3468 139c-122,-115 -302,84 -241,-179 -11,-107 223,-156 282,-94 -11,81 58,233 -41,273zm-23351 1c-105,24 -153,-109 -61,-145 105,-27 168,106 61,145zm24854 1235c-74,-34 -12,-213 57,-247 95,31 48,248 -57,247zm-745 959c-131,-39 90,-162 68,-36 -9,34 -40,35 -68,36zm-580 125c-271,-2 -207,-278 22,-258 3,97 156,80 118,174 -14,62 -88,47 -131,27 41,15 36,54 -9,57zm-4721 708c-160,-111 135,-284 36,-409 0,143 -91,154 -200,164 -82,-65 7,-213 -133,-239 -2,-127 123,-160 2,-295 -32,-15 -208,46 -149,-133 -62,31 -108,255 -196,135 -76,-287 -383,-107 -452,-583 12,-171 222,-232 155,14 41,142 129,-111 193,-134 178,-28 51,542 209,331 225,37 562,105 667,272 52,58 135,-264 251,-35 -50,336 84,146 102,296 -176,229 -316,441 -485,616zm2722 76c-182,-62 -200,-116 -118,-211 67,-8 225,183 118,211zm-3350 129c-265,-3 -6,-255 -113,-243 -72,-139 -127,41 -180,-81 -122,-204 -1,-79 51,-267 -104,-106 -89,-137 36,-210 28,-165 225,-48 236,43 70,377 358,243 -30,758zm4313 31c-156,-89 187,-251 229,-366 307,271 36,272 -229,366zm-633 241c-132,-72 -392,-264 -225,-397 136,27 403,282 225,397zm-782 530c-115,-31 41,-164 81,-69 26,55 -40,68 -81,69zm-14248 -13459c-257,80 40,191 67,57 157,-165 -88,10 -67,-97 0,0 0,40 0,40zm5162 981c66,5 -76,-212 76,-180 42,24 10,129 68,55 -8,-66 113,-626 21,-475 -121,408 -190,-89 -278,60 -17,80 -102,76 -78,147 20,90 14,139 97,154 -43,146 -70,139 94,239zm-925 -488c-249,236 -240,498 -40,782 -8,144 59,270 96,48 -36,-164 -182,-248 8,-330 122,35 -70,-89 114,-119 117,-25 -6,-70 -68,-3 -430,33 6,-347 -110,-378zm-720 571c-34,34 35,589 20,457 167,-323 211,-84 -20,-457zm-1771 1390c-174,179 373,-6 477,-40 60,-37 138,-30 190,-15 74,-33 95,-136 2,-64 -211,-354 -421,197 -669,119zm-969 2317c270,25 228,-356 234,-588 191,-214 432,-265 448,-612 -179,-90 -338,-414 -518,-481 56,109 -22,278 117,396 -169,404 86,384 -66,649 -102,-11 -90,-229 -145,-315 -166,-171 -666,-177 -865,12 150,287 639,-113 732,178 332,58 12,452 -211,248 -78,61 213,139 -43,201 -188,213 387,-41 317,312zm66 556c142,118 -104,-153 -119,-188 -16,-213 -168,-258 -294,-251 -67,-139 -130,-232 -204,-343 54,-27 107,-125 1,-88 -457,-129 123,632 300,497 90,255 115,450 316,373zm-12663 1514c-54,4 -310,257 -160,246 49,-14 278,-194 160,-246zm638 7050c-499,-21 -758,-728 -1077,-989 -623,-135 -1328,-314 -1678,-849 -218,-146 113,-484 -149,-671 -37,-498 -459,-741 -913,-746 -107,-209 -464,-291 -442,-526 19,-205 -1208,-475 -1043,-1071 -47,-201 311,-481 115,-503 -649,637 -1472,-149 -846,-916 -328,-86 -657,-449 -218,-709 -56,-169 -327,-78 -397,-139 27,-121 -52,-59 -98,-41 -53,-163 -232,-197 -293,-333 -101,-912 -353,-151 -558,-308 -169,-115 -74,-424 -319,-502 -42,-71 46,-110 72,-107 -118,-1 -106,-147 -207,-199 -113,70 -79,-62 -212,11 -58,-77 -62,-292 -20,-400 97,-42 101,-174 243,-85 75,5 180,-259 244,-112 5,57 112,-8 125,-36 126,-30 106,126 184,132 200,-134 129,157 261,112 98,-25 124,-57 209,16 103,-88 85,-252 217,-35 36,125 -190,5 -125,120 20,107 172,84 141,193 21,18 33,-45 62,-36 61,12 37,130 119,123 42,-9 91,-78 131,-15 139,53 221,170 348,226 254,75 -66,-378 445,-73 604,212 1111,797 1886,750 762,148 1507,508 2339,530 858,-258 1215,-1327 2299,-1360 594,-307 643,-642 1196,-89 111,-29 -122,-163 80,-197 163,-9 250,64 372,141 178,54 200,118 271,289 160,-13 230,152 300,265 45,12 220,229 186,103 189,-107 520,124 723,-87 195,-96 294,29 359,-268 -80,-13 -159,-270 -245,-171 -169,63 -112,-152 6,-173 -5,-99 201,-198 138,-343 132,-101 230,-231 385,-343 98,-77 -42,-50 -18,-122 14,-108 326,-93 291,13 -164,273 184,57 203,-63 -270,-10 -47,-124 93,-242 358,-143 178,-848 596,-1132 373,-215 154,-504 210,-796 253,-467 516,-1372 1043,-1471 383,167 848,-361 1085,-561 113,78 137,16 211,-61 66,-87 200,-68 241,-159 255,-269 678,-141 832,-488 -202,-120 -549,133 -786,214 -332,160 -674,225 -947,410 -345,-135 835,-455 838,-692 15,-40 107,-54 121,-9 106,268 395,-220 591,-160 694,-17 1057,-927 1668,-664 382,-559 1557,204 1915,167 544,-138 286,252 154,216 -75,-70 -89,-49 -26,21 38,171 254,-14 329,76 27,-33 54,-100 130,-44 -13,-56 56,-84 106,-76 -79,-121 123,-129 115,-15 29,-83 84,-226 201,-191 54,-48 72,-272 148,-120 54,74 146,-4 224,63 65,-20 73,-99 155,-86 172,121 376,-102 464,138 65,-41 194,-32 270,12 63,-76 204,-71 303,-62 51,-49 104,36 105,79 19,-99 121,31 186,-70 653,19 -240,-45 288,-151 58,-59 -47,-15 -81,-17 -109,-32 16,-129 74,-129 129,-77 216,192 200,57 -53,-277 242,139 212,-117 187,-90 409,-187 599,-220 60,35 141,19 182,77 7,-51 98,-104 143,-64 68,-118 -64,-137 -101,-232 -1,-87 116,-38 95,-120 -19,-125 142,-129 197,-98 40,170 90,282 -122,330 19,21 80,-29 103,5 47,142 42,-131 154,190 -54,-179 -55,-402 21,-508 -100,-43 67,-209 -12,-289 -36,37 -130,11 -111,-45 112,-240 132,-522 329,-704 96,26 -11,-22 -36,-47 -1,-70 85,-104 141,-129 204,140 -272,430 -43,661 -53,382 42,-109 149,54 37,43 14,-54 48,-62 73,4 150,-11 172,68 43,-319 357,158 270,272 71,-12 -15,-262 76,-280 127,26 195,109 134,217 281,-31 293,282 206,482 -99,-20 -118,8 -173,84 -196,74 13,182 -11,300 74,79 106,-134 180,-91 94,-59 378,-151 318,62 164,-32 160,109 35,172 -187,255 -60,63 -232,51 -64,-28 -335,235 -191,188 93,-99 160,87 230,10 139,33 563,216 214,356 -32,218 -101,289 -197,441 -157,166 -14,172 -206,84 -51,95 -166,99 -254,63 -165,131 -413,105 -558,275 -132,32 -786,113 -529,209 0,131 -122,137 -104,305 -70,123 -127,-128 -95,113 -23,369 -84,60 -243,249 -126,113 20,149 -46,258 -218,49 -421,644 -527,323 -202,27 -52,442 -251,452 -5,100 -228,-36 -119,99 150,-61 270,53 237,196 -266,141 -103,518 -293,674 -47,62 9,58 58,40 98,-43 95,148 204,126 313,-30 122,-319 580,-117 81,157 -293,252 -386,187 -51,56 -92,139 -182,155 -246,34 287,29 -19,177 -546,-35 17,295 196,149 172,109 -96,355 -213,254 -243,236 -435,-38 -369,-232 -51,-9 -375,38 -169,-197 37,-242 -113,164 -121,168 -209,-55 -355,-276 -237,-471 52,-180 -194,514 -226,44 -141,2 -230,-181 -315,-157 -520,-207 -317,95 -677,162 -145,-5 -42,406 -274,582 -11,130 -68,255 -166,200 222,173 64,422 -200,409 -285,-10 -238,380 -446,227 78,48 50,84 48,158 80,-51 134,45 52,84 43,64 80,-62 142,-1 55,-4 64,107 63,38 197,-288 533,-178 767,-8 116,13 349,-235 459,-354 84,68 122,120 217,103 76,-82 474,-295 471,-64 -78,146 117,189 36,332 -95,61 -209,674 -321,271 43,144 -25,251 -164,184 -166,-97 -7,22 41,101 21,111 -143,129 -195,48 83,83 217,157 255,247 89,-5 420,-135 286,36 -30,67 -124,97 -128,106 74,88 -76,100 -101,154 -38,-8 20,176 -82,133 -2,4 -7,117 -68,106 -111,-46 -74,-135 -94,13 -47,52 -40,127 -48,203 3,56 -84,33 -50,79 38,45 -48,89 -20,88 48,44 57,174 34,227 -117,-49 -279,-149 -320,-260 17,67 -85,139 27,154 137,44 333,165 137,259 76,-36 114,83 72,129 -384,326 -259,82 -779,-138 -234,-402 -368,-811 -891,-912 -834,-176 879,255 339,625 -60,37 -119,-146 -197,-214 129,443 -414,69 -155,843 -98,85 -286,-156 -330,-232 -212,5 -446,-231 -119,-252 157,43 194,155 286,251 -25,-94 -81,-152 24,-187 -187,-73 -245,-241 -394,-273 -51,-65 -142,-82 -92,-173 -68,-2 -156,-11 -176,-96 -337,-182 -424,272 -620,-168 -44,-364 -617,37 -516,-317 57,34 -397,205 -294,21 45,-130 209,-99 292,-120 -72,-38 -328,-58 -326,-12 9,136 -252,42 -241,134 -112,238 -193,-66 -226,-10 56,127 -150,231 -106,54 -31,-60 -35,42 -100,4 -375,-73 -627,-670 -1053,-762 -360,35 -579,344 -962,361 -425,-43 -103,-326 74,-384 269,-316 793,-69 618,-705 230,-145 -56,-476 164,-477 -113,-25 -81,-114 -107,-223 -56,-57 66,-249 -55,-193 9,57 -12,163 -93,123 -180,-252 95,-575 17,-901 13,-76 -245,6 -205,-182 6,-289 -344,-297 -574,-264 -379,-268 -1188,-78 -1402,376 -136,113 60,351 28,507 -51,52 -82,147 11,153 111,185 437,80 498,300 6,170 157,741 -164,512 -128,-164 -442,25 -374,-217 -169,11 -406,60 -549,-110 -71,2117 -369,560 -1436,1210 -481,400 318,664 -397,1144 127,-34 183,90 262,171 17,147 266,35 300,181 83,273 128,575 344,797 -125,203 -506,-299 -759,-74 163,273 542,-168 537,481 -15,279 -98,223 -237,300 108,310 -138,501 -92,786 118,330 -159,337 -285,597 -40,96 -221,232 -264,95 -13,-19 -27,28 -31,44 -38,360 -429,435 -653,654 -149,310 -119,892 -591,1039 14,148 -214,96 -332,130 -230,69 -276,212 -444,-84 -96,-208 -291,-203 -247,21 232,17 135,565 -92,331 -9,-115 -294,-240 -164,-127 89,107 221,207 237,343 -68,125 -118,389 -269,392 83,170 -151,137 -230,127 71,490 -545,1626 -1101,1650zm39990 2242c-363,-114 -635,-309 -684,-715 -202,-144 -708,-333 -453,-613 -12,-152 81,-141 163,-191 -107,-22 -148,-137 -2,-147 -63,-58 -73,-142 -20,-239 -154,22 -84,-228 -98,-324 -401,-1133 2443,2246 1094,2229zm-16417 288c-58,-7 -36,-97 19,-78 54,10 34,92 -19,78zm7735 1675c-48,-2 -74,-91 -17,-100 58,-15 90,97 17,100zm-4406 -22178c-168,-15 -67,236 10,112 10,-35 42,-96 -10,-112zm639 4029c790,563 293,-17 -154,-207 -129,-30 -453,16 -512,124 224,-19 450,6 666,83zm1760 3575c-64,212 -122,771 257,556 -129,-25 -382,-162 -209,-568 2,-188 -109,-141 -48,12zm-372 2098c-121,339 450,885 523,310 -206,-364 -326,-88 -523,-310zm-4258 2063c222,156 305,-210 57,-221 -239,15 -315,209 -57,221zm4839 -62c601,863 1110,-420 791,-391 -183,-63 -326,-67 -439,-153 -84,110 -279,197 -165,-47 146,-248 -348,-138 -263,79 -162,-49 -193,-54 -330,72 -144,-64 -302,97 -239,-118 -276,-49 149,-403 33,-492 -378,81 -536,180 -519,609 -30,150 189,169 -39,257 299,321 704,307 1170,184zm-4811 564c-159,52 101,168 115,124 -16,-43 -74,-124 -115,-124zm-1196 1112c-134,49 3,191 39,281 58,-64 93,-253 -39,-281zm6397 1844c6,5 20,8 29,3 -7,-1 -21,-2 -29,-3zm5045 2556c216,54 -230,-105 -306,-164 -111,65 236,220 306,164zm96 720c-331,247 -90,631 209,656 -46,-99 67,-132 137,-110 -75,-60 45,-188 -10,-213 -65,36 -80,-26 -86,-78 -52,-115 -109,-198 -83,-323 -44,73 -81,146 -167,68zm-4610 1417c159,140 272,-195 123,-243 -82,132 -176,92 -299,78 -141,128 63,202 176,165zm5352 68c513,228 28,-188 -208,-64 -107,-34 -235,-174 -368,-202 -417,-173 351,445 576,266zm1383 140c113,95 291,-57 68,-57 -266,-23 -428,-510 -707,-373 268,63 364,427 639,430zm1533 4726c-375,-179 -885,-423 -1395,-312 -486,-116 -863,-483 -1380,-462 -867,122 -1125,-606 -1505,-1164 -724,-346 -1462,-335 -2283,-295 -45,-115 -189,-192 -61,-286 -121,75 -163,-57 -280,-84 -209,-399 -467,-294 -771,-228 -27,48 13,171 -104,208 -90,66 -27,181 -137,236 -201,185 -503,-296 -687,83 -1150,2108 -1505,2911 -3910,1603 -414,0 -88,-243 -213,-168 -76,126 -271,106 -356,26 -67,-186 -62,-292 -313,-377 24,-466 -244,-1031 -635,-1206 -103,-454 -43,-986 -33,-1439 96,-189 406,-525 184,-754 -325,-426 131,-766 -17,-1265 199,40 292,-73 444,-176 350,-240 376,-899 847,-1091 124,-48 496,-705 600,-569 133,-71 72,54 161,98 228,-61 205,208 183,342 419,6 632,-355 1168,-412 1049,-378 -509,-546 706,-1067 171,-135 549,-324 624,-568 -19,-250 210,-296 320,-441 250,-373 -864,-1510 -756,-688 4,209 -279,188 -357,311 179,289 -210,248 -324,396 -166,-44 -292,-77 -427,-178 -157,104 -211,-98 -73,-231 191,-312 75,-701 307,-1077 838,-359 712,-1383 -282,-624 -247,128 -82,-346 -298,-276 -41,-552 -177,306 -142,476 -274,568 -296,-28 -356,498 198,162 232,855 667,803 122,-19 -15,312 -81,361 -268,48 -130,317 -200,395 -283,52 227,101 149,240 68,-7 136,-75 212,-72 130,86 -247,210 -293,300 -248,-45 -479,-68 -735,-240 -206,-13 -499,155 -702,124 -144,-91 -219,-125 -272,36 -266,-195 -217,210 -10,249 367,-12 618,87 931,-50 477,-191 -125,162 186,222 62,-33 155,19 113,92 131,418 -96,-23 -280,-29 -319,37 -678,189 -1012,90 -567,-244 -195,359 -808,659 297,470 -130,508 64,1014 255,53 50,350 92,529 -135,165 -329,367 -435,528 -256,-248 -434,299 -576,3 -42,-107 -62,-81 -147,-72 -310,-821 -826,-715 125,-1301 523,-236 27,-692 -274,-731 -23,-152 -357,202 -417,24 -113,-155 234,-229 271,-348 -252,-169 -107,-103 52,-235 52,-277 -41,-597 158,-877 -315,100 131,-254 -79,-261 -210,-8 16,-207 114,-212 -58,15 -113,-36 -57,-84 385,-113 -292,-332 -432,-557 -82,-145 58,-465 161,-187 152,84 119,160 189,304 74,176 258,37 339,128 121,-38 89,-335 325,-231 152,-19 37,-545 264,-537 244,110 -4,-250 163,-281 -110,-161 -512,-275 -419,-542 72,-27 358,51 213,-115 -170,-223 -180,-88 -323,-140 -330,-206 301,-402 271,-648 -1,-69 77,-82 98,-131 -95,-50 -160,164 -246,26 -268,538 -704,905 -988,180 275,-969 -655,-693 -221,-178 -188,854 -104,448 248,1088 75,-33 -50,-302 267,-104 106,132 -98,141 -137,226 143,-81 295,5 151,168 126,-11 503,419 398,477 -193,103 130,257 -96,326 -309,-234 -699,-345 -1006,-590 65,106 198,654 -91,568 -148,238 -245,-220 -348,-282 7,-102 -36,-179 -42,-29 -306,134 -43,-169 -37,-239 -4,-71 -69,-83 -26,8 -69,52 -47,119 -130,187 -238,-110 7,-407 -159,-484 -69,-235 118,-346 120,-543 -8,92 -112,187 -153,19 -65,-190 74,-350 35,-550 -15,-223 8,-516 104,-685 -19,-103 16,-111 50,-187 -53,-68 -65,-259 66,-262 -37,-28 -16,-96 37,-81 8,-47 -11,-166 79,-137 -45,-107 6,-101 55,-121 -33,-60 -10,-157 51,-167 51,21 78,170 54,-8 17,-80 91,-128 166,-146 -101,-138 252,-167 136,-2 -139,98 -8,9 37,97 45,-15 34,-88 88,-83 227,1 359,-230 611,-218 724,-312 542,444 -16,543 -236,3 34,91 130,33 202,-113 315,250 485,124 104,-26 329,-115 166,-182 -63,-18 -196,131 -220,-22 797,-394 -271,-56 148,-617 335,-28 -821,-310 -194,-395 -28,250 375,185 215,-7 -131,-189 -154,-544 65,-592 -68,-63 -72,-480 71,-325 -1,-311 -622,-75 203,-649 10,-195 -354,92 -483,-85 -125,19 -595,-318 -316,-438 325,199 939,-8 1122,312 73,6 55,114 60,135 82,18 175,-177 72,-195 -49,-227 -771,-217 -367,-419 169,87 225,-179 151,-39 -529,-119 -100,468 -639,178 -103,60 -383,19 -245,-118 139,65 148,-62 207,-164 -138,76 -132,49 -270,-18 -35,-134 138,-177 148,-298 65,-1 116,65 195,50 306,-45 -102,-110 -206,-95 -348,372 -359,98 -478,-176 -343,92 -395,-404 -526,-562 12,-86 -510,-32 -278,-200 108,53 0,-24 20,-74 235,-63 -87,-75 -13,-246 162,-343 581,-11 850,49 -88,-118 -528,-251 -329,-409 -73,-37 -255,-100 -153,-253 -33,-351 -295,-33 -365,-383 -20,-165 158,-179 217,-277 82,-141 10,-268 -138,-136 -67,-41 -41,-132 -150,-118 -60,-92 -61,-174 -194,-178 -112,266 -452,65 -271,-135 -92,-53 -219,132 -284,-32 98,-110 -36,-134 -64,-258 38,-153 -396,-51 -404,-253 138,-349 -374,-176 -496,-347 -276,-450 64,579 -978,-250 -148,-88 -247,-204 -337,-344 28,112 -128,198 -193,90 -193,-92 -45,-185 35,-292 -6,-225 105,-145 233,-109 2,61 -32,25 7,5 74,119 80,157 222,107 113,13 12,215 121,143 76,-695 278,13 399,-390 -138,-193 77,264 -230,-29 -77,-163 -202,-519 108,-278 124,-205 466,-259 635,-461 72,-69 222,207 347,46 123,54 111,5 242,-5 92,-19 406,-279 320,-403 -186,81 32,-156 0,-216 76,-114 256,-208 182,-403 112,-48 306,33 314,-192 829,-943 476,606 57,946 -291,135 -737,345 -886,624 -230,392 69,39 252,-66 204,-142 70,200 150,207 191,44 618,-141 584,-347 47,-65 162,38 230,17 39,183 175,283 346,255 169,49 342,266 533,252 274,-182 1337,-116 1075,-444 141,-94 48,-191 -38,-262 -79,-15 -107,134 -193,34 -57,-86 -76,-382 79,-217 -174,-620 1962,-1943 2266,-1132 12,74 98,-40 163,-31 47,-26 89,61 122,17 312,1 342,-253 682,-183 539,192 -30,-624 324,-852 108,-289 351,-101 555,-139 245,63 -113,288 -73,442 -17,301 -86,53 -127,202 -68,213 10,142 74,266 33,0 137,-26 123,58 -26,44 25,178 -136,125 -351,288 272,482 544,544 -193,371 -897,96 58,586 206,-72 148,229 289,239 147,-86 479,-440 201,-532 -148,-29 -224,-512 -17,-481 98,306 390,436 689,548 84,-220 339,-358 543,-515 175,-118 -4,231 125,237 -76,-195 190,-538 317,-209 144,366 -122,-329 321,-162 199,-22 459,173 581,308 409,-82 784,383 1025,687 0,114 55,173 114,273 -35,85 -77,95 18,136 24,32 -28,86 41,77 247,-45 172,650 456,441 264,117 -532,136 24,646 659,679 870,-804 1596,-598 389,-59 438,563 789,669 -13,195 -322,-50 -370,343 -51,103 -166,153 -256,288 -111,76 29,297 -143,259 -233,188 570,293 753,246 -12,-208 306,-189 416,-349 45,-371 378,-564 724,-578 319,-359 341,80 124,306 -247,383 -864,285 -1044,737 -531,15 -967,100 -1525,283 -20,47 -173,208 -149,190 152,-18 364,266 266,384 -221,46 -556,31 -727,250 -73,315 -940,366 -378,608 -30,101 177,351 14,384 -76,-14 75,79 74,136 494,274 908,936 1252,1347 576,-118 1142,48 1420,500 -681,444 -1688,1026 -2523,999 -188,45 -709,-29 -263,116 331,177 -1,529 -247,559 -37,-89 17,-301 -150,-277 220,545 -808,395 -641,938 -119,463 -112,1308 -721,1344 -7,224 50,653 -306,707 -190,285 -602,92 -787,382 133,31 -14,145 -5,185 107,-52 30,161 114,79 327,-45 756,-71 991,-135 -326,-417 254,36 318,-93 349,-308 -94,-688 -72,-970 398,210 477,-317 804,-368 339,-183 367,590 673,556 172,-10 2,271 165,298 105,54 107,101 99,173 117,761 1,1710 -220,2512 -41,845 -880,-36 -1310,154 -835,113 -1610,-99 -2451,30 -491,-331 484,327 -366,154 -282,94 1433,227 1716,224 442,295 809,35 1314,220 170,-102 1052,-560 1045,-166 -3,32 18,90 36,23 59,-151 241,-64 355,-129 273,-177 144,-684 428,-805 91,-378 77,-994 584,-351 1059,1347 -85,3787 1521,4515 440,8 605,397 971,576 282,430 -131,1110 81,1508 805,239 617,378 667,1005 608,432 844,1784 295,2336 -136,233 -84,610 -422,620z"/>
 </g>
</svg>
